<svg width="82" height="80" viewBox="0 0 82 80" fill="none" xmlns="http://www.w3.org/2000/svg">
<g clip-path="url(#clip0_144_1231)">
<path d="M40.9999 35.5334C40.8004 35.5334 40.6022 35.4897 40.4177 35.4036L17.1844 24.4703C16.706 24.2448 16.3999 23.7623 16.3999 23.2334C16.3999 22.7045 16.706 22.2221 17.1844 21.9966L40.4177 11.0633C40.7867 10.8897 41.2131 10.8897 41.5821 11.0633L64.8154 21.9966C65.2938 22.2221 65.5999 22.7045 65.5999 23.2334C65.5999 23.7623 65.2938 24.2448 64.8154 24.4703L41.5821 35.4036C41.3976 35.4897 41.1994 35.5334 40.9999 35.5334ZM20.9769 23.2334L40.9999 32.6566L61.0229 23.2334L40.9999 13.8103L20.9769 23.2334Z" fill="#002FA7"/>
<path d="M41.0001 46.4665C40.791 46.4665 40.5805 46.4187 40.3892 46.323L23.9892 38.123C23.5259 37.8907 23.2334 37.4178 23.2334 36.8999V26.449C23.2334 25.9816 23.4726 25.5456 23.8675 25.2955C24.2625 25.044 24.7586 25.0153 25.1809 25.2121L41.0001 32.6564L56.8179 25.2121C57.2415 25.014 57.7376 25.044 58.1312 25.2955C58.5276 25.5456 58.7667 25.9816 58.7667 26.449V36.8999C58.7667 37.4178 58.4743 37.8907 58.011 38.123L41.611 46.323C41.4196 46.4187 41.2092 46.4665 41.0001 46.4665ZM25.9667 36.0553L41.0001 43.5719L56.0334 36.0553V28.6028L41.5823 35.4034C41.2133 35.5769 40.7869 35.5769 40.4179 35.4034L25.9667 28.6028V36.0553Z" fill="#002FA7"/>
<path d="M64.2333 24.6H41C40.2456 24.6 39.6333 23.9878 39.6333 23.2334C39.6333 22.479 40.2456 21.8667 41 21.8667H64.2333C64.9877 21.8667 65.6 22.479 65.6 23.2334C65.6 23.9878 64.9877 24.6 64.2333 24.6Z" fill="#002FA7"/>
<path d="M64.2334 36.9C63.479 36.9 62.8667 36.2878 62.8667 35.5334V23.2334C62.8667 22.479 63.479 21.8667 64.2334 21.8667C64.9878 21.8667 65.6 22.479 65.6 23.2334V35.5334C65.6 36.2878 64.9878 36.9 64.2334 36.9Z" fill="#002FA7"/>
<path d="M41 27.3333C40.2456 27.3333 39.6333 26.721 39.6333 25.9666V20.5C39.6333 19.7456 40.2456 19.1333 41 19.1333C41.7544 19.1333 42.3666 19.7456 42.3666 20.5V25.9666C42.3666 26.721 41.7544 27.3333 41 27.3333Z" fill="#002FA7"/>
<path d="M61.4989 41.0002C61.2392 41.0002 60.9755 40.9264 60.7418 40.7706C60.1145 40.3524 59.945 39.5037 60.3632 38.8751L63.0965 34.7751C63.5147 34.1464 64.3621 33.9756 64.9921 34.3965C65.6194 34.8147 65.7889 35.6634 65.3707 36.2921L62.6373 40.3921C62.3736 40.787 61.9403 41.0002 61.4989 41.0002Z" fill="#002FA7"/>
<path d="M66.9681 41.0002C66.5267 41.0002 66.0935 40.787 65.8297 40.3921L63.0964 36.2921C62.6782 35.6648 62.8476 34.8147 63.4749 34.3965C64.1022 33.9756 64.9509 34.1464 65.3705 34.7751L68.1038 38.8751C68.522 39.5024 68.3526 40.3524 67.7253 40.7706C67.4916 40.9264 67.2278 41.0002 66.9681 41.0002Z" fill="#002FA7"/>
<path d="M41 39.6331C40.2456 39.6331 39.6333 39.0209 39.6333 38.2665V34.1665C39.6333 33.4121 40.2456 32.7998 41 32.7998C41.7544 32.7998 42.3666 33.4121 42.3666 34.1665V38.2665C42.3666 39.0209 41.7544 39.6331 41 39.6331Z" fill="#002FA7"/>
<path d="M80.6333 51.9333H1.36667C0.612267 51.9333 0 51.3211 0 50.5667V5.46803C0 2.45317 2.45317 0 5.46803 0H76.532C79.5468 0 82 2.45317 82 5.46803V50.5667C82 51.3211 81.3877 51.9333 80.6333 51.9333ZM2.73333 49.2H79.2667V5.46803C79.2667 3.95923 78.0408 2.73333 76.532 2.73333H5.46803C3.95923 2.73333 2.73333 3.95923 2.73333 5.46803V49.2Z" fill="#002FA7"/>
<path d="M76.532 62.8664H5.46803C2.45317 62.8664 0 60.4132 0 57.3983V50.5664C0 49.812 0.612267 49.1997 1.36667 49.1997H80.6333C81.3877 49.1997 82 49.812 82 50.5664V57.3983C82 60.4132 79.5468 62.8664 76.532 62.8664ZM2.73333 51.933V57.3983C2.73333 58.9071 3.95923 60.133 5.46803 60.133H76.532C78.0408 60.133 79.2667 58.9071 79.2667 57.3983V51.933H2.73333Z" fill="#002FA7"/>
<path d="M45.1001 57.4003H36.9001C36.1457 57.4003 35.5334 56.7881 35.5334 56.0337C35.5334 55.2793 36.1457 54.667 36.9001 54.667H45.1001C45.8545 54.667 46.4668 55.2793 46.4668 56.0337C46.4668 56.7881 45.8545 57.4003 45.1001 57.4003Z" fill="#002FA7"/>
<path d="M75.1668 51.933H6.83346C6.07906 51.933 5.4668 51.3207 5.4668 50.5663V6.83298C5.4668 6.07858 6.07906 5.46631 6.83346 5.46631H75.1668C75.9212 5.46631 76.5335 6.07858 76.5335 6.83298V50.5663C76.5335 51.3207 75.9212 51.933 75.1668 51.933ZM8.20013 49.1996H73.8001V8.19964H8.20013V49.1996Z" fill="#002FA7"/>
<path d="M58.7666 79.2669H23.2333C20.9728 79.2669 19.1333 77.4274 19.1333 75.1669C19.1333 72.9064 20.9728 71.0669 23.2333 71.0669H58.7666C61.0271 71.0669 62.8666 72.9064 62.8666 75.1669C62.8666 77.4274 61.0271 79.2669 58.7666 79.2669ZM23.2333 73.8002C22.4803 73.8002 21.8666 74.4139 21.8666 75.1669C21.8666 75.9199 22.4803 76.5336 23.2333 76.5336H58.7666C59.5197 76.5336 60.1333 75.9199 60.1333 75.1669C60.1333 74.4139 59.5197 73.8002 58.7666 73.8002H23.2333Z" fill="#002FA7"/>
<path d="M56.0332 73.8H25.9665C25.2121 73.8 24.5999 73.1877 24.5999 72.4333C24.5999 71.6789 25.2121 71.0666 25.9665 71.0666C30.5011 71.0666 32.7999 67.8481 32.7999 61.5C32.7999 60.7456 33.4121 60.1333 34.1665 60.1333H47.8332C48.5876 60.1333 49.1999 60.7456 49.1999 61.5C49.1999 67.8481 51.4986 71.0666 56.0332 71.0666C56.7876 71.0666 57.3999 71.6789 57.3999 72.4333C57.3999 73.1877 56.7876 73.8 56.0332 73.8ZM32.6236 71.0666H49.3775C47.6938 69.2025 46.703 66.4268 46.5048 62.8666H35.4963C35.2968 66.4268 34.3073 69.2025 32.6236 71.0666Z" fill="#002FA7"/>
</g>
<defs>
<clipPath id="clip0_144_1231">
<rect width="82" height="79.2667" fill="white"/>
</clipPath>
</defs>
</svg>
