<svg width="24" height="24" viewBox="0 0 17 17" fill="none" xmlns="http://www.w3.org/2000/svg">
<g clip-path="url(#clip0_132_374)">
<path d="M8.65987 9.71429C8.65987 9.42688 8.89287 9.19388 9.18027 9.19388H12.3092C12.5966 9.19388 12.8296 9.42688 12.8296 9.71429C12.8296 10.0017 12.5966 10.2347 12.3092 10.2347H9.18027C8.89284 10.2347 8.65987 10.0017 8.65987 9.71429ZM9.18027 8.15306H12.3092C12.5966 8.15306 12.8296 7.92006 12.8296 7.63265C12.8296 7.34525 12.5966 7.11225 12.3092 7.11225H9.18027C8.89287 7.11225 8.65987 7.34525 8.65987 7.63265C8.65987 7.92006 8.89284 8.15306 9.18027 8.15306ZM16.4797 4.33673V13.0061C16.4798 13.0155 16.4796 13.0248 16.4791 13.0342C16.4737 13.1541 16.4277 13.2635 16.3544 13.3489L16.3544 13.3489C16.3542 13.3491 16.3539 13.3494 16.3537 13.3496C16.3536 13.3498 16.3535 13.3499 16.3533 13.3501C16.3533 13.3501 16.3532 13.3502 16.3532 13.3503C16.3448 13.36 16.336 13.3694 16.3268 13.3785L12.8513 16.8471C12.7624 16.9362 12.6413 16.9933 12.507 16.9994C12.499 16.9998 12.4908 17 12.4827 17C12.4814 17 12.48 17 12.4787 17H5.5301C5.24269 17 5.00969 16.767 5.00969 16.4796V13.1837H1.04092C0.753512 13.1837 0.520508 12.9507 0.520508 12.6633V0.520408C0.520508 0.233004 0.753512 0 1.04092 0H11.4702C11.7576 0 11.9906 0.233004 11.9906 0.520408V3.81633H15.9593C16.2467 3.81633 16.4797 4.04933 16.4797 4.33673ZM5.5301 3.81633H10.9498V1.04082H1.56132V12.1429H5.00969V4.33673C5.00969 4.04933 5.24266 3.81633 5.5301 3.81633ZM14.7011 13.5306H13.0033V15.225L14.7011 13.5306ZM15.4389 4.85714H6.0505V15.9592H11.9625V13.0102C11.9625 12.7228 12.1955 12.4898 12.4829 12.4898H15.4389V4.85714Z" fill="#002FA7"/>
</g>
<defs>
<clipPath id="clip0_132_374">
<rect width="24" height="24" fill="white"/>
</clipPath>
</defs>
</svg>
