<svg width="69" height="78" viewBox="0 0 69 78" fill="none" xmlns="http://www.w3.org/2000/svg">
<g id="graduation_event_4glkettruh6q 1" clip-path="url(#clip0_165_325)">
<path id="Vector" d="M52.3656 29.6884L35.2868 20.6534C35.0538 20.531 34.7945 20.467 34.5312 20.467C34.268 20.467 34.0087 20.531 33.7756 20.6534L16.7131 29.6884C16.4512 29.8279 16.2324 30.0364 16.0806 30.2913C15.9288 30.5463 15.8497 30.8379 15.8519 31.1347C15.8641 31.4175 15.95 31.6922 16.101 31.9316C16.2521 32.1711 16.4631 32.3669 16.7131 32.4997L20.2556 34.3684V47.6122C20.2556 48.0431 20.4268 48.4565 20.7316 48.7612C21.0363 49.066 21.4496 49.2372 21.8806 49.2372H41.0881V51.2034H39.9181C39.4871 51.2034 39.0738 51.3746 38.7691 51.6794C38.4643 51.9841 38.2931 52.3974 38.2931 52.8284V58.4997C38.2931 58.9306 38.4643 59.344 38.7691 59.6487C39.0738 59.9535 39.4871 60.1247 39.9181 60.1247H45.5081C45.9391 60.1247 46.3524 59.9535 46.6572 59.6487C46.9619 59.344 47.1331 58.9306 47.1331 58.4997V52.8934C47.1331 52.4624 46.9619 52.0491 46.6572 51.7444C46.3524 51.4396 45.9391 51.2684 45.5081 51.2684H44.3381V49.3022H47.3931C47.8241 49.3022 48.2374 49.131 48.5422 48.8262C48.8469 48.5215 49.0181 48.1081 49.0181 47.6772V34.3522L52.3656 32.4997C52.6251 32.3615 52.8422 32.1555 52.9939 31.9037C53.1456 31.6519 53.2261 31.3636 53.2269 31.0697C53.2174 30.784 53.1329 30.5059 52.9816 30.2634C52.8304 30.0209 52.6179 29.8226 52.3656 29.6884ZM43.8668 56.8747H41.5268V54.5184H43.8668V56.8747ZM34.5881 23.9359L48.1731 31.1347L44.3381 33.1497V31.6222C44.3381 31.1912 44.1669 30.7779 43.8622 30.4731C43.5574 30.1684 43.1441 29.9972 42.7131 29.9972H39.2681C38.8371 29.9972 38.4238 30.1684 38.1191 30.4731C37.8143 30.7779 37.6431 31.1912 37.6431 31.6222C37.6431 32.0531 37.8143 32.4665 38.1191 32.7712C38.4238 33.076 38.8371 33.2472 39.2681 33.2472H41.0881V34.8722L34.5881 38.3334L20.9381 31.1347L34.5881 23.9359ZM23.5381 46.0522V36.1559L33.7756 41.5997C34.0142 41.7141 34.2748 41.775 34.5393 41.7784C34.7992 41.7795 35.0556 41.7182 35.2868 41.5997L41.0881 38.5447V46.0522H23.5381ZM45.8006 46.0522H44.3381V36.8222L45.7681 36.0584L45.8006 46.0522Z" fill="#002FA7"/>
<path id="Vector_2" d="M62.2132 9.75H58.3132V4.875C58.3132 4.44402 58.142 4.0307 57.8373 3.72595C57.5325 3.4212 57.1192 3.25 56.6882 3.25H50.4482C50.0172 3.25 49.6039 3.4212 49.2992 3.72595C48.9944 4.0307 48.8232 4.44402 48.8232 4.875V9.75H45.3782V4.875C45.3782 4.44402 45.207 4.0307 44.9023 3.72595C44.5975 3.4212 44.1842 3.25 43.7532 3.25H37.5132C37.0822 3.25 36.6689 3.4212 36.3642 3.72595C36.0594 4.0307 35.8882 4.44402 35.8882 4.875V9.75H32.4757V4.875C32.4757 4.44402 32.3045 4.0307 31.9998 3.72595C31.695 3.4212 31.2817 3.25 30.8507 3.25H24.5945C24.1635 3.25 23.7502 3.4212 23.4454 3.72595C23.1407 4.0307 22.9695 4.44402 22.9695 4.875V9.75H19.5245V4.875C19.5245 4.44402 19.3533 4.0307 19.0485 3.72595C18.7438 3.4212 18.3304 3.25 17.8995 3.25H11.6595C11.2285 3.25 10.8152 3.4212 10.5104 3.72595C10.2057 4.0307 10.0345 4.44402 10.0345 4.875V9.75H6.96322C6.0665 9.74568 5.17785 9.91938 4.34876 10.261C3.51967 10.6027 2.76663 11.1055 2.13331 11.7404C1.49998 12.3752 0.998956 13.1294 0.659275 13.9593C0.319594 14.7892 0.148011 15.6783 0.154473 16.575V65.9425C0.154463 66.8351 0.330807 67.7189 0.673375 68.5432C1.01594 69.3675 1.51799 70.1159 2.15067 70.7456C2.78335 71.3752 3.53419 71.8737 4.36008 72.2123C5.18597 72.5509 6.07062 72.723 6.96322 72.7188H62.2132C64.0104 72.7188 65.734 72.0048 67.0048 70.734C68.2756 69.4632 68.9895 67.7397 68.9895 65.9425V16.575C68.9959 15.681 68.8254 14.7946 68.4877 13.9669C68.1501 13.1391 67.6519 12.3863 67.0221 11.7519C66.3922 11.1175 65.643 10.614 64.8177 10.2704C63.9924 9.92685 63.1072 9.74998 62.2132 9.75ZM52.0732 6.5H55.0795V9.75H52.0732V6.5ZM39.0732 6.5H42.0795V9.75H39.1382L39.0732 6.5ZM26.2195 6.5H29.2257V9.75H26.2195V6.5ZM13.2195 6.5H16.2257V9.75H13.2845L13.2195 6.5ZM65.707 65.9425C65.7028 66.8708 65.3344 67.7604 64.681 68.4199C64.0276 69.0794 63.1415 69.456 62.2132 69.4688H6.96322C6.02932 69.4645 5.13489 69.0916 4.47451 68.4312C3.81413 67.7708 3.44125 66.8764 3.43697 65.9425V63.9275C4.52148 64.6286 5.7856 65.001 7.07697 65H62.327C63.5197 65.0031 64.6918 64.689 65.7232 64.09L65.707 65.9425ZM65.707 59.1988C65.5005 59.9261 65.0648 60.5673 64.4645 61.0269C63.8643 61.4866 63.1317 61.7402 62.3757 61.75H7.12572C6.27715 61.7509 5.45672 61.4457 4.81497 60.8905C4.17322 60.3354 3.7532 59.5674 3.63197 58.7275C3.63197 58.5488 3.45322 16.4775 3.45322 16.4775C3.46599 15.5536 3.84091 14.6715 4.49732 14.0212C5.15374 13.3709 6.03921 13.0042 6.96322 13H10.0345V16.9C10.0345 17.331 10.2057 17.7443 10.5104 18.0491C10.8152 18.3538 11.2285 18.525 11.6595 18.525C12.0905 18.525 12.5038 18.3538 12.8085 18.0491C13.1133 17.7443 13.2845 17.331 13.2845 16.9V13H23.0345V16.9C23.0345 17.331 23.2057 17.7443 23.5104 18.0491C23.8152 18.3538 24.2285 18.525 24.6595 18.525C25.0904 18.525 25.5038 18.3538 25.8085 18.0491C26.1133 17.7443 26.2845 17.331 26.2845 16.9V13H35.8882V16.9C35.8882 17.331 36.0594 17.7443 36.3642 18.0491C36.6689 18.3538 37.0822 18.525 37.5132 18.525C37.9442 18.525 38.3575 18.3538 38.6623 18.0491C38.967 17.7443 39.1382 17.331 39.1382 16.9V13H48.8882V16.9C48.8882 17.331 49.0594 17.7443 49.3642 18.0491C49.6689 18.3538 50.0822 18.525 50.5132 18.525C50.9442 18.525 51.3575 18.3538 51.6623 18.0491C51.967 17.7443 52.1382 17.331 52.1382 16.9V13H62.2132C63.1484 13 64.0454 13.3715 64.7067 14.0328C65.368 14.6941 65.7395 15.591 65.7395 16.5263L65.707 59.1988Z" fill="#002FA7"/>
</g>
<defs>
<clipPath id="clip0_165_325">
<rect width="68.8235" height="78" fill="white" transform="translate(0.176514)"/>
</clipPath>
</defs>
</svg>
