<svg width="512" height="512" viewBox="0 0 512 512" fill="none" xmlns="http://www.w3.org/2000/svg">
<g clip-path="url(#clip0_439_151)">
<mask id="mask0_439_151" style="mask-type:luminance" maskUnits="userSpaceOnUse" x="-59" y="33" width="630" height="445">
<path d="M-59 33H570.357V478H-59V33Z" fill="white"/>
</mask>
<g mask="url(#mask0_439_151)">
<path d="M360.418 413.129C355.65 415.991 352.249 419.996 350.505 425.29C350.036 426.712 349.499 426.993 347.97 426.786C342.444 426.032 337.189 426.945 332.376 429.96C329.104 432.009 325.751 433.929 322.472 435.966C321.394 436.635 320.707 436.687 319.972 435.455C313.087 423.912 306.153 412.396 299.241 400.868C299.092 400.619 299.04 400.313 298.824 399.696C304.952 396.753 309.896 391.429 317.077 390.584C319.143 390.342 321.304 390.985 323.428 391.121C324.237 391.175 325.144 391.131 325.871 390.818C328.683 389.604 330.505 387.774 331.402 384.517C332.084 382.044 333.873 379.431 335.924 377.871C340.206 374.612 344.987 372.007 349.852 368.951C351.84 372.257 353.597 375.175 355.35 378.095C360.549 386.753 365.705 395.439 370.981 404.05C371.96 405.646 371.783 406.409 370.173 407.307C366.866 409.149 363.664 411.179 360.418 413.129ZM269.386 393.891C268.396 394.541 267.454 395.625 266.406 395.74C264.819 395.913 263.814 394.704 263.946 393.056C264.067 391.542 265.142 390.461 266.608 390.799C267.653 391.042 268.496 392.16 269.429 392.888L269.386 393.891ZM258.227 396.169C243.416 397.601 228.737 399.021 214.056 400.441C213.936 400.234 213.815 400.025 213.693 399.817C215.577 397.484 217.368 395.068 219.36 392.832C229.126 381.864 240.937 373.897 254.726 368.827C256.519 368.168 257.47 368.322 258.275 370.242C259.989 374.343 261.966 378.333 263.825 382.375C264.155 383.092 264.429 383.836 264.784 384.706C259.363 386.672 257.215 390.415 258.227 396.169ZM370.117 424.55C370.914 423.616 371.696 422.664 372.524 421.756C371.813 419.852 371.113 418.056 370.627 416.236C370.486 415.71 371.186 414.669 371.773 414.29C374.881 412.283 378.076 410.41 381.444 408.37C371.687 392.119 362.033 376.037 352.3 359.824C351.588 360.195 350.997 360.462 350.444 360.794C345.348 363.851 340.221 366.86 335.187 370.017C333.706 370.946 332.643 370.791 331.151 370.008C326.622 367.635 321.964 365.511 317.378 363.248C315.999 362.567 314.781 362.668 313.382 363.31C300.162 369.382 286.898 375.355 273.695 381.463C271.804 382.339 271.043 381.966 270.231 380.138C267.489 373.965 264.532 367.888 261.77 361.726C261.105 360.242 260.374 359.973 258.86 360.412C235.421 367.206 217.321 381.021 204.367 401.659C203.471 403.089 203.108 404.49 204.014 406.037C204.94 407.62 206.409 407.89 208.062 407.732C217.289 406.855 226.516 405.976 235.745 405.103C242.61 404.453 249.553 404.233 256.319 403.024C261.072 402.175 263.328 404.253 265.913 407.595C278.644 424.059 291.6 440.35 304.471 456.705C304.927 457.284 305.34 457.911 305.818 458.589C306.421 458.468 307.03 458.376 307.644 458.303C307.952 458.266 308.259 458.236 308.566 458.205C309.073 457.848 309.673 457.743 310.299 457.91C310.736 457.752 311.171 457.587 311.615 457.451C312.375 457.217 313.152 457.051 313.925 456.872C313.412 456.715 312.933 456.425 312.479 455.846C298.574 438.126 284.62 420.446 270.683 402.752C270.37 402.354 270.142 401.889 269.79 401.319C274.204 398.538 276.114 394.982 274.324 390.048C273.753 388.477 274.966 388.316 275.855 387.91C286.525 383.043 297.2 378.19 307.877 373.336C308.349 373.121 308.831 372.924 309.303 372.709C316.03 369.642 316.037 369.63 322.589 373.01C324.352 373.919 326.069 374.92 327.764 375.855C326.579 378.49 325.542 380.926 324.363 383.292C324.169 383.683 323.325 384.02 322.838 383.954C316.629 383.101 310.94 384.286 305.616 387.704C300.374 391.069 294.956 394.163 289.327 397.55C299.083 413.799 308.766 429.925 318.544 446.211C324.378 442.707 329.901 439.23 335.593 436.053C337.805 434.819 340.34 433.951 342.834 433.499C344.714 433.158 346.797 433.57 348.724 433.965C351.235 434.48 355.721 431.946 356.317 429.477C357.405 424.96 359.737 421.358 364.337 418.769C365.344 421.976 366.323 424.868 367.111 427.813C368.167 426.776 369.166 425.663 370.117 424.55Z" fill="#293D9B"/>
<path d="M283.761 220.854C282.629 222.391 281.567 223.221 281.396 224.205C281.139 225.696 282.208 226.694 283.775 226.722C285.404 226.75 286.36 225.621 286.144 224.198C285.995 223.221 284.905 222.388 283.761 220.854ZM283.577 233.601C280.419 237.298 277.309 240.779 274.374 244.403C265.497 255.368 258.092 267.249 252.228 280.097C251.425 281.858 251.568 282.87 253.381 283.49C256.093 284.418 256.574 286.363 256.536 289.034C256.389 299.291 256.434 309.552 256.509 319.812C256.524 321.782 256.046 322.726 253.902 322.472C252.531 322.311 251.128 322.442 249.463 322.442C249.463 321.354 249.463 320.56 249.463 319.765C249.461 310.398 249.417 301.03 249.502 291.663C249.519 289.958 249.024 288.982 247.522 288.137C243.092 285.65 242.798 284.542 244.767 279.946C252.361 262.227 262.824 246.359 275.704 232.059C276.812 230.829 277.211 229.926 276.237 228.27C274.148 224.714 275.18 220.242 278.35 217.615C281.477 215.022 285.972 215.031 289.227 217.636C292.349 220.135 293.413 224.75 291.319 228.269C290.343 229.909 290.638 230.773 291.791 232.044C304.934 246.525 315.454 262.707 323.126 280.716C324.668 284.336 324.255 285.936 320.654 287.768C318.482 288.873 317.809 290.261 317.848 292.654C317.992 301.797 317.859 310.943 317.943 320.086C317.961 321.924 317.444 322.518 315.573 322.486C311.014 322.405 311.011 322.493 311.01 317.873C311.009 307.984 311.083 298.095 310.953 288.209C310.924 286.057 311.541 284.831 313.455 283.862C316.315 282.415 316.285 282.278 314.949 279.366C307.324 262.734 297.033 247.898 284.637 234.487C284.439 234.275 284.19 234.109 283.577 233.601Z" fill="#293D9B"/>
<path d="M278.29 327.58C273.18 324.241 273.865 319.404 273.939 314.732C273.975 312.428 273.89 310.122 273.956 307.82C273.997 306.367 273.399 305.899 271.979 305.868C268.431 305.789 264.886 305.563 261.08 305.385C261.08 303.463 260.964 301.693 261.153 299.955C261.208 299.452 262.144 298.649 262.668 298.657C268.237 298.726 273.806 298.939 279.375 299.096C280.73 299.133 280.855 299.981 280.85 301.062C280.825 306.413 280.938 311.769 280.79 317.117C280.733 319.196 281.449 320.584 282.974 321.882C289.638 327.561 297.369 331.31 305.506 334.233C311.426 336.36 317.514 338.02 323.481 340.026C324.392 340.332 325.516 341.273 325.705 342.11C325.902 342.988 325.371 344.478 324.651 344.996C323.832 345.588 322.38 345.727 321.326 345.497C316.845 344.524 312.288 343.683 307.985 342.156C300.795 339.603 293.762 336.605 286.704 333.694C285.274 333.104 284.226 333.132 282.791 333.852C270.406 340.074 257.486 344.75 243.723 346.864C241.898 347.145 240.889 346.209 240.514 344.552C240.102 342.738 240.835 341.528 242.671 341.033C246.604 339.973 250.64 339.183 254.443 337.774C261.453 335.18 268.332 332.234 275.249 329.393C276.121 329.035 276.889 328.426 278.29 327.58Z" fill="#293D9B"/>
<path d="M259.864 350.472C262.078 349.66 263.934 348.981 265.584 348.377C267.441 351.039 268.868 353.824 270.979 355.917C273.469 358.383 276.356 360.611 279.427 362.286C283.582 364.551 287.658 363.144 291.345 360.641C295.87 357.568 299.246 353.496 301.577 348.278C303.499 348.957 305.354 349.614 307.52 350.379C307.019 351.596 306.669 352.699 306.135 353.705C302.246 361.027 296.636 366.565 289.024 369.963C286.072 371.283 282.958 371.625 279.917 370.466C270.437 366.855 264.14 359.996 259.864 350.472Z" fill="#293D9B"/>
<path d="M306.137 298.504C306.328 301.025 306.483 303.078 306.653 305.307C304.402 305.505 302.28 305.734 300.153 305.871C297.191 306.06 294.221 306.148 291.261 306.346C290.07 306.425 289.434 306.05 289.387 304.797C289.322 303.116 289.209 301.438 289.1 299.453C294.903 299.13 300.415 298.822 306.137 298.504Z" fill="#293D9B"/>
<mask id="mask1_439_151" style="mask-type:luminance" maskUnits="userSpaceOnUse" x="330" y="285" width="79" height="71">
<path d="M330.46 285.523H408.684V355.118H330.46V285.523Z" fill="white"/>
</mask>
<g mask="url(#mask1_439_151)">
<g opacity="0.220001">
<path d="M330.594 308.689C339.072 294.163 354.087 284.883 367.756 285.731C380.667 286.532 389.941 299.97 388.766 314.541C387.339 332.218 389.362 348.095 408.63 354.97" stroke="#293D9B" stroke-width="0.31087" stroke-miterlimit="10"/>
</g>
</g>
<mask id="mask2_439_151" style="mask-type:luminance" maskUnits="userSpaceOnUse" x="216" y="236" width="47" height="83">
<path d="M216.057 236.168H262.299V318.079H216.057V236.168Z" fill="white"/>
</mask>
<g mask="url(#mask2_439_151)">
<g opacity="0.220001">
<path d="M262.265 236.99C241.688 232.482 239.235 251.818 233.558 266.414C228.962 278.231 220.869 288.693 217.179 300.857C213.669 312.429 220.141 314.345 229.921 317.933" stroke="#293D9B" stroke-width="0.31087" stroke-miterlimit="10"/>
</g>
</g>
<mask id="mask3_439_151" style="mask-type:luminance" maskUnits="userSpaceOnUse" x="304" y="215" width="35" height="22">
<path d="M304.475 215.586H338.048V236.365H304.475V215.586Z" fill="white"/>
</mask>
<g mask="url(#mask3_439_151)">
<g opacity="0.220001">
<path d="M337.921 215.677C329.441 227.481 317.503 234.426 304.495 236.212" stroke="#293D9B" stroke-width="0.31087" stroke-miterlimit="10"/>
</g>
</g>
<mask id="mask4_439_151" style="mask-type:luminance" maskUnits="userSpaceOnUse" x="169" y="291" width="44" height="109">
<path d="M169.137 291.536H212.053V399.171H169.137V291.536Z" fill="white"/>
</mask>
<g mask="url(#mask4_439_151)">
<g opacity="0.220001">
<path d="M169.269 291.621C178.019 305.213 175.658 311.071 185.32 317.233C191.578 321.226 197.446 321.76 203.558 328.379C203.558 328.379 208.666 333.912 211.097 342.371C215.253 356.836 203.046 379.836 178.997 399.051" stroke="#293D9B" stroke-width="0.31087" stroke-miterlimit="10"/>
</g>
</g>
<mask id="mask5_439_151" style="mask-type:luminance" maskUnits="userSpaceOnUse" x="160" y="205" width="254" height="254">
<path d="M160.851 205.858H413.567V458.574H160.851V205.858Z" fill="white"/>
</mask>
<g mask="url(#mask5_439_151)">
<g opacity="0.220001">
<path d="M413.413 332.216C413.413 401.915 356.91 458.419 287.21 458.419C217.51 458.419 161.008 401.915 161.008 332.216C161.008 262.516 217.51 206.013 287.21 206.013C356.91 206.013 413.413 262.516 413.413 332.216Z" stroke="#293D9B" stroke-width="0.31087" stroke-miterlimit="10"/>
</g>
</g>
<path d="M168.571 299.24C168.401 299.259 168.229 299.279 168.059 299.299C163.414 316.049 162.393 333.051 164.916 350.255C167.125 365.319 172.015 379.479 179.612 392.755C179.934 392.554 180.119 392.471 180.263 392.343C189.653 384.045 197.854 374.792 203.335 363.386C205.635 358.601 207.614 353.557 207.207 348.244C206.451 338.389 201.91 330.574 193.045 325.672C191.051 324.571 188.938 323.678 186.854 322.745C179.709 319.547 174.56 314.497 171.885 307.016C170.939 304.368 169.685 301.829 168.571 299.24ZM330.493 217.921C329.793 217.63 329.266 217.389 328.722 217.19C313.964 211.781 298.748 209.242 283.015 209.661C274.589 209.886 266.277 210.872 258.099 212.84C231.367 219.278 209.21 233.131 191.603 254.228C183.096 264.42 176.523 275.776 171.767 288.171C171.532 288.782 171.467 289.667 171.734 290.231C174.153 295.339 176.836 300.328 179.091 305.504C180.95 309.771 183.761 312.964 187.841 315.079C189.735 316.061 191.662 316.987 193.616 317.843C199.78 320.545 204.902 324.477 208.476 330.267C211.857 335.743 214.431 341.484 214.462 348.095C214.488 353.396 213.272 358.433 211.281 363.295C206.403 375.21 198.518 384.986 189.376 393.847C187.497 395.668 185.532 397.4 183.586 399.192C183.886 399.68 184.103 400.067 184.35 400.434C189.356 407.896 195.04 414.811 201.629 420.912C228.469 445.764 260.128 457.006 296.671 454.289C306.423 453.564 315.985 451.735 325.156 448.4C367.548 432.985 394.419 403.397 405.688 359.68C405.985 358.529 405.726 358.051 404.606 357.596C396.163 354.168 389.862 348.521 386.59 339.833C384.346 333.877 383.862 327.666 383.949 321.37C384.011 316.908 384.362 312.415 383.978 307.99C383.514 302.654 381.124 297.987 377.264 294.201C371.804 288.847 365.217 288.296 358.264 290.186C347.565 293.093 339.748 299.871 333.762 308.981C333.469 309.427 333.173 309.871 332.828 310.392C330.719 309.155 328.725 307.986 326.788 306.851C326.825 306.581 326.809 306.467 326.855 306.391C333.588 295.49 342.605 287.362 355.053 283.572C361.4 281.639 367.853 281.151 374.193 283.686C385.684 288.282 391.961 300.724 391.569 312.807C391.376 318.766 390.746 324.705 391.68 330.655C392.538 336.124 394.386 341.127 398.373 345.133C400.879 347.649 403.821 349.492 407.43 350.849C407.728 348.016 408.027 345.416 408.275 342.81C409.581 329.127 408.594 315.576 405.066 302.322C395.273 265.534 373.183 238.683 339.174 221.6C337.973 220.997 337.34 221.145 336.452 222.161C329.15 230.516 320.139 236.135 309.322 238.759C307.664 239.161 305.971 239.413 304.206 239.753C303.849 237.205 303.535 234.959 303.208 232.621C308.451 231.796 313.399 230.253 318.036 227.768C322.718 225.259 326.827 222.038 330.493 217.921ZM156.349 332.131C156.433 259.876 215.28 201.541 287.725 202.376C359.101 203.198 415.929 261.46 416 332.079C416.072 404.169 356.823 463.287 283.74 461.979C214.33 460.736 156.443 404.177 156.349 332.131Z" fill="#293D9B"/>
<path d="M230.188 314.54C229.381 316.754 228.589 318.926 227.742 321.248C223.458 319.685 219.157 318.422 215.687 315.434C211.928 312.198 211.192 307.931 212.015 303.348C213.197 296.771 216.215 290.876 219.209 284.983C222.738 278.039 226.414 271.16 229.611 264.065C231.824 259.153 233.245 253.89 235.185 248.846C236.691 244.93 238.764 241.302 241.757 238.289C246.69 233.324 252.768 232.099 259.457 232.944C260.28 233.048 261.089 233.248 262.062 233.433C261.544 235.83 261.057 238.087 260.588 240.252C258.437 240.139 256.406 239.838 254.403 239.966C250.364 240.225 247.333 242.328 245.067 245.625C242.62 249.187 241.007 253.146 239.77 257.234C236.483 268.094 231.39 278.114 225.885 287.968C223.172 292.823 220.771 297.839 219.41 303.282C218.248 307.935 219.127 309.862 223.473 311.819C225.634 312.793 227.866 313.606 230.188 314.54Z" fill="#293D9B"/>
<path d="M332.983 88.014C310.126 95.7658 287.391 103.475 264.542 111.225C264.788 111.429 264.926 111.553 265.074 111.664C275.112 119.07 285.148 126.477 295.191 133.876C297.553 135.617 299.933 137.333 302.323 139.034C302.614 139.242 303.028 139.393 303.38 139.382C307.767 139.254 312.157 139.166 316.538 138.915C320.197 138.706 323.851 138.353 327.496 137.957C330.282 137.656 333.034 137.609 335.757 138.339C341.014 139.745 344.579 143.114 346.855 147.961C346.888 148.029 346.897 148.108 346.934 148.248C346.134 148.586 345.338 148.923 344.543 149.26C336.196 152.784 327.848 156.3 319.508 159.84C317.741 160.59 316.021 161.453 314.263 162.225C309.702 164.227 305.303 163.747 301.266 160.968C271.646 140.58 242.058 120.146 212.459 99.7276C193.302 86.5119 174.141 73.3024 154.99 60.0767C154.641 59.8355 154.331 59.4737 154.122 59.1006C153.304 57.637 152.811 56.079 152.941 54.3704C153.026 53.2774 153.368 52.2727 154.04 51.4109C154.703 50.5629 155.687 50.3552 156.688 50.2781C158.902 50.1065 161.059 50.502 163.194 51.023C168.349 52.2826 173.297 54.1603 178.205 56.1436C187.438 59.8741 196.438 64.123 205.471 68.3036C212.371 71.4969 219.319 74.5882 226.238 77.7453C229.258 79.1244 232.45 79.6628 235.733 79.7648C238.976 79.8642 242.22 80.0222 245.462 79.9811C250.958 79.9127 256.453 79.7076 261.948 79.5621C264.356 79.4986 266.764 79.4526 269.173 79.378C273.968 79.2313 278.763 79.0796 283.557 78.9117C287.594 78.77 291.63 78.5946 295.668 78.4467C298.559 78.341 301.454 78.1333 304.343 78.1843C312.023 78.3186 319.261 80.2646 326.036 83.8707C328.192 85.0197 330.255 86.3428 332.359 87.5887C332.541 87.6957 332.708 87.825 332.983 88.014Z" fill="#293D9B"/>
<path d="M237.739 122.554C236.278 124.653 234.459 126.223 232.265 127.357C229.134 128.976 225.79 129.633 222.295 129.322C213.124 128.505 206.329 123.965 201.847 115.977C200.156 112.961 199.38 109.659 199.503 106.188C199.601 103.424 200.356 100.836 201.843 98.4823C201.935 98.3393 202.042 98.205 202.174 98.0209C214.027 106.197 225.854 114.355 237.739 122.554Z" fill="#293D9B"/>
<path d="M96 394.246C105.938 403.257 115.156 412.777 125.509 420.774C150.652 440.196 179.146 451.132 210.732 453.831C289.263 460.542 361.589 405.071 376.079 326.48C385.032 277.928 374.175 234.182 344.233 195.339C343.612 194.534 343.025 193.702 342.205 192.589C345.151 189.008 348.066 185.462 351.483 181.306C385.062 223.551 398.628 271.203 387.269 323.932C372.231 393.735 329.254 438.807 260.806 454.139C194.987 468.88 140.005 446.202 96 394.246Z" fill="#293D9B"/>
</g>
</g>
<defs>
<clipPath id="clip0_439_151">
<rect width="512" height="512" fill="white"/>
</clipPath>
</defs>
</svg>
