<svg width="17" height="17" viewBox="0 0 17 17" fill="none" xmlns="http://www.w3.org/2000/svg">
<g clip-path="url(#clip0_132_860)">
<path d="M8.49997 4.44531C7.12852 4.44531 6.0127 5.56114 6.0127 6.93258C6.0127 8.30403 7.12852 9.41985 8.49997 9.41985C9.87141 9.41985 10.9872 8.30403 10.9872 6.93258C10.9872 5.56114 9.87141 4.44531 8.49997 4.44531ZM8.49997 8.46756C7.65373 8.46756 6.96531 7.77914 6.96531 6.9329C6.96531 6.08666 7.65405 5.39824 8.49997 5.39824C9.34589 5.39824 10.0346 6.08666 10.0346 6.9329C10.0346 7.77882 9.3462 8.46756 8.49997 8.46756Z" fill="#002FA7"/>
<path d="M8.49993 0C4.6771 0 1.56714 3.10996 1.56714 6.93279C1.56714 7.46213 1.62715 7.98988 1.74559 8.50079C1.95707 9.41371 3.16245 11.2618 4.13633 12.6513L6.28733 15.72C6.86589 16.5456 7.65179 17 8.49993 17C9.34808 17 10.134 16.5453 10.7129 15.72L12.8639 12.6513C13.8377 11.2621 15.0431 9.41403 15.2546 8.50079C15.373 7.98988 15.433 7.46213 15.433 6.93279C15.4327 3.10996 12.3228 0 8.49993 0ZM14.3264 8.28614C14.1924 8.86501 13.3541 10.2923 12.0837 12.1048L9.93298 15.1735C9.53765 15.7372 9.02895 16.0477 8.50025 16.0477C7.97155 16.0477 7.46254 15.7372 7.06752 15.1735L4.91652 12.1048C3.64637 10.2923 2.80776 8.86501 2.67376 8.28614C2.57183 7.8454 2.52007 7.39037 2.52007 6.93279C2.52007 3.63517 5.20262 0.952612 8.50025 0.952612C11.7979 0.952612 14.4801 3.63517 14.4801 6.93279C14.4801 7.39005 14.4284 7.8454 14.3264 8.28614Z" fill="#002FA7"/>
<path d="M7.17062 2.96382C6.82355 3.14403 6.45308 3.2133 6.11463 3.39192C5.85318 3.52991 5.7389 3.7695 5.54383 3.97541C5.49028 4.03193 5.45455 4.10909 5.40113 4.16251C5.32433 4.23931 5.36014 4.08415 5.36942 4.05469C5.49312 3.66194 5.75923 3.34337 5.99096 3.01139C6.10814 2.84351 6.20821 2.70988 6.35247 2.5706C6.3694 2.55425 6.40866 2.50899 6.36515 2.50718C6.20649 2.50057 6.09579 2.59303 5.94498 2.61817C5.70468 2.65822 5.32999 2.61598 5.13158 2.77831C5.10431 2.80063 4.94183 2.93154 5.02535 2.87344C5.3028 2.68044 5.65563 2.63315 5.98144 2.58011C6.63662 2.47346 7.27271 2.33594 7.9412 2.33594" stroke="#002FA7" stroke-width="2" stroke-linecap="round"/>
<path d="M5.6581 2.93508C5.45986 3.1113 5.16259 3.23563 5.02387 3.46783C4.94585 3.59843 4.82127 3.70827 4.76067 3.84678C4.71614 3.94856 4.67112 4.11363 4.60845 4.19719C4.56961 4.24898 4.5893 4.49674 4.57516 4.57456C4.55511 4.6848 4.57357 5.02274 4.57357 4.9107C4.57357 4.75015 4.58482 4.59281 4.61638 4.43503C4.63581 4.33786 4.62872 4.16291 4.69407 4.08303C4.79636 3.95802 4.80189 3.65958 4.80189 3.50589C4.80189 3.41119 4.70236 3.62123 4.68139 3.65493C4.59563 3.79276 4.49292 3.89143 4.43087 4.04656C4.39763 4.12966 4.32683 4.21393 4.31671 4.30501C4.30095 4.44688 4.18771 4.49145 4.28183 4.2844C4.35698 4.11906 4.49534 3.90092 4.63224 3.77543C4.65154 3.75774 4.89685 3.59217 4.90971 3.61053C4.94968 3.66764 4.41658 4.27365 4.35952 4.37636C4.25687 4.56113 4.13755 4.7384 3.9996 4.90118C3.87317 5.05036 3.75443 5.14157 3.74591 5.35465C3.73458 5.63776 3.6529 4.76703 3.76018 4.50479C3.79747 4.41363 3.84703 4.33312 3.89495 4.24793C3.96978 4.11491 3.90539 4.56316 3.84421 4.70299C3.75147 4.91497 3.63907 5.16237 3.60321 5.38954C3.579 5.54281 3.4672 5.64996 3.46051 5.82398C3.44797 6.15002 3.23563 6.45375 3.16876 6.76581C3.08357 7.16335 3.12297 7.54208 3.34634 7.89948C3.45985 8.08109 3.50117 8.22284 3.53978 8.43699C3.57149 8.61279 3.67942 8.79106 3.68883 8.96974C3.69953 9.17311 3.65567 9.36902 3.7903 9.54213C3.89044 9.67087 3.97605 9.81356 4.0757 9.94169C4.31633 10.2511 4.63956 10.5203 4.65919 10.9327C4.67379 11.2393 4.74608 11.4204 4.91922 11.643C5.05341 11.8155 5.25403 11.8901 5.41551 12.0267C5.69418 12.2625 5.86568 12.5584 6.03546 12.8671C6.13624 13.0503 6.28282 13.2796 6.416 13.4394C6.57409 13.6292 6.73955 13.7675 6.86947 13.9801C7.08194 14.3278 7.26862 14.8266 7.65274 15.0187C7.81287 15.0987 7.94987 15.1817 8.11889 15.2486C8.28762 15.3153 8.47328 15.293 8.65481 15.293C8.74305 15.293 8.82978 15.2904 8.91167 15.2517C9.009 15.2058 9.12144 15.2081 9.21293 15.1471C9.34516 15.0589 9.47971 14.945 9.59029 14.83C9.67337 14.7436 9.70465 14.6125 9.798 14.5367C9.91099 14.4448 9.95265 14.2795 10.0517 14.1656C10.1625 14.0382 10.2312 13.9077 10.3197 13.7645C10.3807 13.6656 10.4331 13.5637 10.4957 13.4664C10.5877 13.3232 10.745 13.2533 10.8651 13.1398C10.9768 13.0342 11.0717 12.9833 11.1378 12.8512C11.2325 12.6618 11.4004 12.4787 11.5627 12.3454C11.7912 12.1577 11.9341 11.8419 12.0733 11.5827C12.4008 10.9729 12.8995 10.4527 13.18 9.81167C13.2828 9.57678 13.3848 9.33053 13.4718 9.09341C13.5701 8.82508 13.5523 8.5146 13.6557 8.25624C13.7929 7.91316 13.9633 7.6472 13.9633 7.25892C13.9633 7.02964 13.9967 6.83423 13.9696 6.60091C13.9545 6.47059 13.9542 6.33517 13.9062 6.21086C13.867 6.10933 13.8744 5.99568 13.8333 5.90167C13.6609 5.50773 13.5964 5.0791 13.4083 4.69189C13.3276 4.52574 13.3186 4.3153 13.2212 4.16231C13.0277 3.85815 12.8505 3.59184 12.5886 3.32989C12.2405 2.98181 11.8079 2.71471 11.4105 2.4277C10.9763 2.11411 10.428 1.96899 9.93595 1.77762C9.76991 1.71305 9.56521 1.68007 9.38893 1.65395C9.34611 1.64761 9.30333 1.65395 9.2605 1.65078C9.20863 1.64694 9.18037 1.59778 9.12731 1.5937C8.78448 1.56733 8.43475 1.47299 8.09986 1.39392C7.46086 1.24304 6.93736 1.26621 6.31611 1.45258C5.99566 1.54872 5.38226 1.73625 5.25853 2.10742" stroke="#002FA7" stroke-width="2" stroke-linecap="round"/>
<path d="M10.5954 3.53423C10.4708 3.40958 10.3436 3.31928 10.1816 3.24883C10.0057 3.17236 9.84095 3.1743 9.65679 3.13467C9.46204 3.09276 9.26951 3.02051 9.06854 3.02051C8.864 3.02051 8.65947 3.02051 8.45493 3.02051C8.24699 3.02051 8.04951 3.02562 7.854 3.10613C7.67063 3.18164 7.48844 3.27067 7.30064 3.33445C7.11763 3.3966 6.97714 3.52616 6.80119 3.60241C6.66814 3.66006 6.52015 3.70499 6.3937 3.77524C6.10215 3.93721 5.76014 4.11752 5.52798 4.36189C5.36622 4.53217 5.41282 4.78604 5.36625 4.98978C5.32592 5.16623 5.34761 5.33571 5.28063 5.50984C5.21077 5.69147 5.09969 5.90943 4.97303 6.05845C4.93575 6.10231 4.91114 6.23023 4.89058 6.28677C4.85477 6.38525 4.83382 6.50548 4.83033 6.61022C4.82152 6.8744 4.69759 7.12449 4.68763 7.39349C4.68337 7.50843 4.65205 7.6168 4.66068 7.73756C4.67372 7.92022 4.7646 8.125 4.83667 8.29409C4.99565 8.66708 5.21127 9.00295 5.40748 9.35008C5.58855 9.67044 5.82303 9.97946 6.05756 10.2634C6.3742 10.6467 6.62976 11.053 6.85668 11.4969C7.02761 11.8314 7.24536 12.1893 7.46237 12.4958C7.61307 12.7087 7.76042 12.9249 7.91267 13.1364C8.04487 13.32 8.16548 13.4888 8.35504 13.62C8.56488 13.7653 8.9016 13.3907 9.01146 13.2379C9.13457 13.0666 9.23622 12.8632 9.32065 12.6702C9.40272 12.4827 9.5273 12.3346 9.63934 12.1645C9.75291 11.992 9.87876 11.8331 10.0024 11.6682C10.1169 11.5155 10.289 11.375 10.3798 11.2099C10.6216 10.7703 10.9057 10.352 11.152 9.91295C11.3521 9.55625 11.4337 9.135 11.6657 8.79989C11.7851 8.62746 11.878 8.44095 11.9654 8.2497C12.0403 8.08576 12.1578 7.93915 12.2095 7.76927C12.3716 7.2367 12.5018 6.58966 12.4157 6.02991C12.3833 5.8195 12.3642 5.49989 12.1937 5.35446C12.0089 5.19686 11.9334 4.97304 11.7148 4.84708C11.4918 4.71856 11.2454 4.59125 11.0457 4.44751C10.9065 4.3473 10.7697 4.24939 10.624 4.16846C10.3181 3.99852 9.94928 3.98423 9.61873 3.86403C9.04848 3.65666 8.4298 3.61985 7.82705 3.61985C7.24023 3.61985 6.75903 3.74256 6.29856 4.1193C6.15128 4.2398 6.02564 4.40432 5.97035 4.58863C5.92149 4.75149 5.87011 4.74794 6.11464 4.72657C6.25021 4.71473 6.37981 4.68311 6.51103 4.64888C6.56773 4.63409 6.68051 4.64003 6.72825 4.6029C6.77131 4.56941 6.88364 4.54502 6.90742 4.5046C6.98475 4.37313 6.8616 4.45319 6.79801 4.50618C6.60179 4.6697 6.31921 4.70747 6.14952 4.90416C6.0226 5.05127 5.91582 5.19575 5.81497 5.36239C5.56284 5.77893 5.51529 6.3105 5.51529 6.78939C5.51529 7.20088 5.49424 7.61808 5.54225 8.02613C5.56727 8.23886 5.64314 8.42254 5.72776 8.61596C5.81658 8.81897 5.97171 8.99129 6.07024 9.18835C6.28977 9.62741 6.59389 9.93546 6.9867 10.2269C7.05256 10.2758 7.42748 10.5464 7.42748 10.3268C7.42748 10.1677 7.52618 10.0531 7.34821 9.9843C7.21287 9.93202 6.98187 9.85567 6.90742 10.0128C6.83394 10.168 6.92999 10.3643 7.00255 10.5028C7.12302 10.7328 7.24749 10.9643 7.42748 11.1544C7.50117 11.2323 7.76624 11.6729 7.89047 11.6682C7.97794 11.6648 8.10709 11.478 8.15526 11.4113C8.23759 11.2973 8.30707 11.1337 8.34711 10.9991C8.4191 10.7569 8.45493 10.5507 8.45493 10.2982C8.45493 10.1405 8.73633 10.1555 8.84815 10.1555C8.94622 10.1555 9.04256 10.1362 9.13989 10.1254C9.21445 10.1171 9.26671 10.0491 9.33967 10.0414C9.53468 10.0209 9.73165 9.75733 9.89938 9.67036C10.0523 9.59108 10.2134 9.54948 10.3608 9.45472C10.4476 9.39894 10.5113 9.31843 10.5939 9.25653C10.6737 9.19665 10.7145 9.10152 10.8016 9.04248C10.8946 8.97937 10.9591 8.88596 11.0093 8.78562C11.1135 8.57726 11.2101 8.35957 11.2947 8.14346C11.3335 8.04431 11.3751 7.94396 11.4104 7.84379C11.4437 7.7494 11.5373 7.64486 11.5373 7.54571C11.5373 7.37675 11.5751 7.16129 11.5214 7.00027C11.4533 6.79607 11.3415 6.59786 11.2804 6.39934C11.2132 6.181 11.1143 5.9452 10.995 5.74926C10.9058 5.60278 10.7945 5.3891 10.624 5.33226" stroke="#002FA7" stroke-width="2" stroke-linecap="round"/>
</g>
<defs>
<clipPath id="clip0_132_860">
<rect width="17" height="17" fill="white"/>
</clipPath>
</defs>
</svg>
