<svg width="15" height="17" viewBox="0 0 15 17" fill="none" xmlns="http://www.w3.org/2000/svg">
<path d="M7.49997 4.44531C6.12852 4.44531 5.0127 5.56114 5.0127 6.93258C5.0127 8.30403 6.12852 9.41985 7.49997 9.41985C8.87141 9.41985 9.98724 8.30403 9.98724 6.93258C9.98724 5.56114 8.87141 4.44531 7.49997 4.44531ZM7.49997 8.46756C6.65373 8.46756 5.96531 7.77914 5.96531 6.9329C5.96531 6.08666 6.65405 5.39824 7.49997 5.39824C8.34589 5.39824 9.03462 6.08666 9.03462 6.9329C9.03462 7.77882 8.3462 8.46756 7.49997 8.46756Z" fill="#0A0A0A"/>
<path d="M7.49993 0C3.6771 0 0.567139 3.10996 0.567139 6.93279C0.567139 7.46213 0.627153 7.98988 0.745595 8.50079C0.957075 9.41371 2.16245 11.2618 3.13633 12.6513L5.28733 15.72C5.86589 16.5456 6.65179 17 7.49993 17C8.34808 17 9.13398 16.5453 9.71285 15.72L11.8639 12.6513C12.8377 11.2621 14.0431 9.41403 14.2546 8.50079C14.373 7.98988 14.433 7.46213 14.433 6.93279C14.4327 3.10996 11.3228 0 7.49993 0ZM13.3264 8.28614C13.1924 8.86501 12.3541 10.2923 11.0837 12.1048L8.93298 15.1735C8.53765 15.7372 8.02895 16.0477 7.50025 16.0477C6.97155 16.0477 6.46254 15.7372 6.06752 15.1735L3.91652 12.1048C2.64637 10.2923 1.80776 8.86501 1.67376 8.28614C1.57183 7.8454 1.52007 7.39037 1.52007 6.93279C1.52007 3.63517 4.20262 0.952612 7.50025 0.952612C10.7979 0.952612 13.4801 3.63517 13.4801 6.93279C13.4801 7.39005 13.4284 7.8454 13.3264 8.28614Z" fill="#0A0A0A"/>
</svg>
