<svg width="70" height="84" viewBox="0 0 70 84" fill="none" xmlns="http://www.w3.org/2000/svg">
<g id="place_a547dhh55u5o 1" clip-path="url(#clip0_165_328)">
<path id="Vector" d="M34.9977 83.09C34.5664 83.09 34.1529 82.9185 33.8474 82.6136L10.4116 59.1772C-3.14535 45.6209 -3.14535 23.5622 10.4116 10.0052C23.9687 -3.55185 46.0267 -3.55185 59.5837 10.0052C73.1407 23.5615 73.1407 45.6202 59.5837 59.1772L52.9761 65.7849C52.3409 66.42 51.3113 66.42 50.6761 65.7849C50.041 65.1497 50.041 64.1201 50.6761 63.4849L57.2838 56.8773C69.5724 44.5887 69.5724 24.5937 57.2838 12.3051C44.9952 0.0165194 25.0002 0.0165194 12.7116 12.3051C0.423014 24.5937 0.423014 44.5887 12.7116 56.8773L34.9977 79.1634L41.8689 72.2922C42.5041 71.6576 43.5337 71.6576 44.1689 72.2922C44.804 72.9273 44.804 73.9569 44.1689 74.5927L36.148 82.6136C35.8425 82.9185 35.429 83.09 34.9977 83.09Z" fill="#002FA7"/>
<path id="Vector_2" d="M47.67 70.4175C47.2425 70.4175 46.8227 70.2441 46.5203 69.9411C46.218 69.6388 46.0439 69.2189 46.0439 68.7915C46.0439 68.3634 46.218 67.9441 46.5203 67.6418C46.8227 67.3388 47.2425 67.1648 47.67 67.1648C48.0981 67.1648 48.5173 67.3388 48.8196 67.6418C49.1226 67.9441 49.2966 68.3634 49.2966 68.7915C49.2966 69.2189 49.1226 69.6388 48.8196 69.9411C48.5173 70.2441 48.0981 70.4175 47.67 70.4175Z" fill="#002FA7"/>
<path id="Vector_3" d="M34.9981 48.9123C34.7301 48.9123 34.4614 48.8463 34.2187 48.7135C34.0835 48.6398 30.8765 46.8779 27.6263 44.1924C23.0296 40.3954 20.6992 36.7215 20.6992 33.2707C20.6992 28.1716 24.7217 24.0239 29.6659 24.0239C31.5904 24.0239 33.4648 24.6718 34.9981 25.8386C36.5314 24.6718 38.4058 24.0239 40.3303 24.0239C45.2745 24.0239 49.297 28.1716 49.297 33.2707C49.297 36.7215 46.9665 40.396 42.3698 44.1924C39.1197 46.8779 35.9127 48.6398 35.7774 48.7135C35.5348 48.8463 35.2661 48.9123 34.9981 48.9123ZM29.6659 27.2766C26.5154 27.2766 23.9519 29.9653 23.9519 33.2707C23.9519 37.9296 31.3129 43.2384 34.9981 45.4138C38.6827 43.2384 46.0443 37.9296 46.0443 33.2707C46.0443 29.9653 43.4808 27.2766 40.3303 27.2766C38.7557 27.2766 37.2891 27.9346 36.1998 29.1294C35.8918 29.4679 35.4561 29.6604 34.9981 29.6604C34.5401 29.6604 34.1044 29.4679 33.7964 29.1294C32.707 27.9346 31.2404 27.2766 29.6659 27.2766Z" fill="#002FA7"/>
<path id="Vector_4" d="M34.9975 58.7892C28.5372 58.7892 22.4644 56.274 17.8962 51.7059C8.46655 42.2762 8.46655 26.9331 17.8962 17.5034C21.6869 13.7127 26.4926 11.3366 31.7937 10.6315C36.9239 9.94999 42.2288 10.9504 46.7303 13.4498C47.5153 13.8855 47.7986 14.8757 47.3629 15.6608C46.9265 16.4465 45.937 16.7291 45.1513 16.2934C37.0325 11.785 26.7702 13.2287 20.1962 19.8033C12.0349 27.9646 12.0349 41.2447 20.1962 49.4059C24.1501 53.3592 29.4067 55.5366 34.9975 55.5366C40.5888 55.5366 45.8455 53.3592 49.7988 49.4059C56.3924 42.8123 57.8241 32.5295 53.2808 24.4C52.8425 23.6162 53.1226 22.6254 53.907 22.1871C54.6908 21.7495 55.6817 22.029 56.1199 22.8134C58.6377 27.3186 59.6515 32.6324 58.975 37.7767C58.2757 43.0905 55.8976 47.9069 52.0987 51.7059C47.5306 56.274 41.4578 58.7892 34.9975 58.7892Z" fill="#002FA7"/>
<path id="Vector_5" d="M51.0067 20.3368C50.5881 20.3368 50.1695 20.1761 49.8513 19.8553L49.8037 19.8077C49.166 19.1751 49.1621 18.1455 49.7941 17.5078C50.4268 16.8701 51.457 16.8663 52.0941 17.4982L52.1608 17.5649C52.7934 18.2026 52.789 19.2329 52.1512 19.8649C51.8343 20.1799 51.4202 20.3368 51.0067 20.3368Z" fill="#002FA7"/>
</g>
<defs>
<clipPath id="clip0_165_328">
<rect width="69.9999" height="83.3333" fill="white"/>
</clipPath>
</defs>
</svg>
