<svg width="70" height="88" viewBox="0 0 70 88" fill="none" xmlns="http://www.w3.org/2000/svg">
<g id="documents_xca9b9yu92kf 1" clip-path="url(#clip0_165_264)">
<g id="Group">
<g id="Group_2">
<g id="Group_3">
<path id="Vector" d="M62.5401 84.942H3.3245V3.058H48.6876V16.9101H62.5401V51.1483H65.5976V14.7505L50.8527 0H0.266846V88H65.5976V76.0932H62.5401V84.942ZM51.7455 5.21898L60.3758 13.8521H51.7455V5.21898Z" fill="#002FA7"/>
<path id="Vector_2" d="M32.9315 61.072H11.1868V64.13H32.9315V61.072Z" fill="#002FA7"/>
<path id="Vector_3" d="M54.6763 67.8171H11.1868V70.8746H54.6763V67.8171Z" fill="#002FA7"/>
<path id="Vector_4" d="M54.6763 74.5667H11.1868V77.6247H54.6763V74.5667Z" fill="#002FA7"/>
<path id="Vector_5" d="M33.0756 19.6504C24.552 19.6504 17.6172 26.5857 17.6172 35.1102C17.6172 43.6352 24.5517 50.5705 33.0756 50.5705C41.6006 50.5705 48.536 43.6349 48.536 35.1102C48.5358 26.5855 41.6006 19.6504 33.0756 19.6504ZM33.0756 47.5129C26.2376 47.5129 20.6747 41.9486 20.6747 35.1102C20.6747 28.2718 26.2376 22.7079 33.0756 22.7079C39.9142 22.7079 45.4783 28.2716 45.4783 35.1102C45.4783 41.9488 39.914 47.5129 33.0756 47.5129Z" fill="#002FA7"/>
<path id="Vector_6" d="M68.1572 62.5909L53.4748 47.9093L50.754 50.6317L48.7888 48.6673C51.9336 45.0272 53.8381 40.287 53.8381 35.1103C53.8381 23.6619 44.5246 14.3477 33.0767 14.3477C21.6279 14.3485 12.3135 23.6633 12.3135 35.1103C12.313 40.6552 14.4726 45.8697 18.3942 49.7914C22.3159 53.7131 27.5299 55.873 33.0767 55.873C38.2498 55.873 42.9868 53.9707 46.6257 50.8293L48.592 52.7949L45.8753 55.5131L60.5567 70.1897C61.5701 71.2073 62.92 71.768 64.3565 71.768C65.7953 71.768 67.1457 71.2075 68.1546 70.1945C69.1711 69.182 69.7307 67.8329 69.733 66.393C69.7333 64.9576 69.174 63.6074 68.1572 62.5909ZM33.0774 52.8155C28.3479 52.8155 23.9016 50.974 20.5568 47.6292C17.2128 44.2857 15.3713 39.8395 15.3718 35.1103C15.3718 25.3485 23.3147 17.4065 33.077 17.4051C42.8385 17.4051 50.7808 25.348 50.7813 35.1103C50.7812 44.8725 42.8386 52.8155 33.0774 52.8155ZM65.9936 68.032C65.1221 68.9049 63.5974 68.9094 62.721 68.0297L50.1995 55.5117L53.4753 52.2346L65.9955 64.7531C66.4342 65.1917 66.6758 65.7747 66.6758 66.3912C66.6753 67.0115 66.4342 67.5928 65.9936 68.032Z" fill="#002FA7"/>
<path id="Vector_7" d="M22.7129 35.1102H25.7709C25.7709 31.082 29.048 27.8045 33.0749 27.8048V24.7468C27.3614 24.7468 22.7129 29.3959 22.7129 35.1102Z" fill="#002FA7"/>
</g>
</g>
</g>
</g>
<defs>
<clipPath id="clip0_165_264">
<rect width="70" height="88" fill="white"/>
</clipPath>
</defs>
</svg>
