<svg width="77" height="77" viewBox="0 0 77 77" fill="none" xmlns="http://www.w3.org/2000/svg">
<path d="M38.5 0C17.2717 0 0 17.2702 0 38.5C0 59.7298 17.2717 77 38.5 77C59.7283 77 77 59.7298 77 38.5C77 17.2702 59.7283 0 38.5 0ZM59.9637 25.6603L36.2714 52.3141C35.688 52.9701 34.8751 53.3077 34.0562 53.3077C33.4062 53.3077 32.7531 53.0945 32.2067 52.6591L17.399 40.813C16.1226 39.7927 15.9153 37.9284 16.937 36.6505C17.9573 35.3726 19.8231 35.1653 21.0995 36.187L33.7112 46.2755L55.5363 21.7229C56.6202 20.4998 58.4948 20.3902 59.7165 21.4771C60.9396 22.5654 61.0506 24.4371 59.9637 25.6603Z" fill="#002FA7"/>
</svg>
