<svg width="19" height="17" viewBox="0 0 19 17" fill="none" xmlns="http://www.w3.org/2000/svg">
<path d="M18.9991 0.0578172L18.1371 0.270942C18.1192 0.27539 16.31 0.713827 13.2073 0.713827C10.1046 0.713827 8.29535 0.27539 8.2783 0.271173L7.41463 0.0551758V5.3065C6.92267 5.33208 6.38108 5.34793 5.79268 5.34793C2.68998 5.34793 0.880766 4.90949 0.863712 4.90527L0 4.68932V11.1406C0 13.1054 0.9994 14.7346 2.89027 15.8519C4.25595 16.6589 5.6113 16.9117 5.6683 16.9221L5.79268 16.9447L5.91706 16.9221C5.97406 16.9117 7.32946 16.6589 8.6951 15.8519C10.3628 14.8664 11.3366 13.4826 11.5433 11.8216C12.3911 12.1591 13.0438 12.2807 13.083 12.2879L13.2074 12.3105L13.3317 12.2879C13.3887 12.2776 14.7441 12.0247 16.1098 11.2177C18.0006 10.1004 19 8.47125 19 6.50646V0.945488L18.9991 0.0578172ZM17.6098 6.50646C17.6098 7.96205 16.8777 9.13815 15.4339 10.0021C14.4994 10.5613 13.5431 10.8157 13.2073 10.8932C12.9444 10.8325 12.3009 10.6633 11.5854 10.3243V8.59183H15.2927C15.2927 7.44196 14.3572 6.50646 13.2073 6.50646C12.5527 6.50646 11.968 6.80986 11.5854 7.28315V5.57963L11.5845 4.69196L10.7225 4.90509C10.7116 4.90782 10.0341 5.07169 8.80488 5.19931V1.78672C9.67364 1.92686 11.1742 2.10407 13.2073 2.10407C15.2405 2.10407 16.741 1.92691 17.6098 1.78672V6.50646ZM10.1951 11.1406C10.1951 12.5962 9.46307 13.7723 8.01925 14.6363C7.08478 15.1955 6.12847 15.4499 5.79268 15.5274C5.45689 15.4498 4.50059 15.1955 3.56611 14.6363C2.1223 13.7723 1.39024 12.5962 1.39024 11.1406V6.42082C2.25901 6.56101 3.75954 6.73817 5.79268 6.73817C7.82582 6.73817 9.32636 6.56101 10.1951 6.42082V11.1406Z" fill="#002FA7"/>
<path d="M15.7562 5.5797C16.1401 5.5797 16.4513 5.26848 16.4513 4.88458C16.4513 4.50067 16.1401 4.18945 15.7562 4.18945C15.3723 4.18945 15.061 4.50067 15.061 4.88458C15.061 5.26848 15.3723 5.5797 15.7562 5.5797Z" fill="#002FA7" />
<path d="M3.24395 10.214C3.62786 10.214 3.93907 9.90276 3.93907 9.51885C3.93907 9.13495 3.62786 8.82373 3.24395 8.82373C2.86004 8.82373 2.54883 9.13495 2.54883 9.51885C2.54883 9.90276 2.86004 10.214 3.24395 10.214Z" fill="#002FA7" />
<path d="M8.34136 10.214C8.72527 10.214 9.03648 9.90276 9.03648 9.51885C9.03648 9.13495 8.72527 8.82373 8.34136 8.82373C7.95746 8.82373 7.64624 9.13495 7.64624 9.51885C7.64624 9.90276 7.95746 10.214 8.34136 10.214Z" fill="#002FA7"/>
<path d="M5.79264 13.9213C6.94256 13.9213 7.87801 12.9858 7.87801 11.8359H3.70728C3.70728 12.9858 4.64277 13.9213 5.79264 13.9213Z" fill="#002FA7"/>
</svg>
